<svg width="32" height="32" viewBox="0 0 32 32" fill="none" xmlns="http://www.w3.org/2000/svg">
<path d="M28 6H23.566L20.566 1H11.434L8.434 6H4C2.93913 6 1.92172 6.42143 1.17157 7.17157C0.421427 7.92172 0 8.93913 0 10L0 26C0 27.0609 0.421427 28.0783 1.17157 28.8284C1.92172 29.5786 2.93913 30 4 30H28C29.0609 30 30.0783 29.5786 30.8284 28.8284C31.5786 28.0783 32 27.0609 32 26V10C32 8.93913 31.5786 7.92172 30.8284 7.17157C30.0783 6.42143 29.0609 6 28 6ZM16 25C14.6155 25 13.2622 24.5895 12.111 23.8203C10.9599 23.0511 10.0627 21.9579 9.53284 20.6788C9.00303 19.3997 8.86441 17.9922 9.1345 16.6344C9.4046 15.2765 10.0713 14.0292 11.0503 13.0503C12.0292 12.0713 13.2765 11.4046 14.6344 11.1345C15.9922 10.8644 17.3997 11.003 18.6788 11.5328C19.9579 12.0627 21.0511 12.9599 21.8203 14.111C22.5895 15.2622 23 16.6155 23 18C23 19.8565 22.2625 21.637 20.9497 22.9497C19.637 24.2625 17.8565 25 16 25Z" fill="#5D6481"/>
</svg>
